<?xml version="1.0" encoding="utf-8"?>
<!-- Generator: Adobe Illustrator 22.1.0, SVG Export Plug-In . SVG Version: 6.00 Build 0)  -->
<svg version="1.1" id="Layer_1" xmlns="http://www.w3.org/2000/svg" xmlns:xlink="http://www.w3.org/1999/xlink" x="0px" y="0px"
	 viewBox="0 0 425.5 249.2" style="enable-background:new 0 0 425.5 249.2;" xml:space="preserve">
<style type="text/css">
	.st0{fill:#2B2A28;}
	.st1{opacity:0.82;}
</style>
<g>
	<path class="st0" d="M85.1,149.4C86.3,126,90.8,84.3,99.2,54c0,0-8.3,0.1-19.1,1c-10.8,0.9-22.8,1.3-28.6,1.6s-15-0.7-18.9-0.7
		c-3.9,0-15.6,0-17.7,8.4c-2.2,8.4-4.5,22-6.8,35.5S4.7,116.5,2,140.9s-2.1,44.8-1.6,57.4c0.5,12.6,0.8,27.8,13.6,38.3
		c5.3,4.2,14.7,7.4,26.5,7.9s11.8,0.5,19,0.3c7.2-0.2,24.6-0.3,29.7-0.3C89.2,244.5,82.8,212.1,85.1,149.4z"/>
	<path class="st0" d="M126.3,136.8c4-49,10.3-70.3,11.8-77.2s5.3-16.8,16.3-26.8c0,0-2.8-5.5-3.2-11.2c0,0-28.5,7.3-39.3,27.7
		c-4.3,7.5-13.2,52.2-15.5,87.5c-2.3,35.3-2.3,61.3,2.8,104.2c0,0-0.4,8,6.8,8.2c7.2,0.2,19.5,0,19.5,0s4.8,0.8,3.8-6
		S122.3,185.8,126.3,136.8z"/>
	<path class="st0" d="M172.1,31.9c5.8-1.4,21-4.5,40.6-4.5s34.9,3.1,40.6,4.5s6.4-0.3,7.4-1.8C265.6,21.4,264,11,262,7
		s-5.6-3.8-5.6-3.8C235.1,0.1,212.8,0,212.8,0s-22.4,0.1-43.6,3.3c0,0-3.6-0.3-5.6,3.8s-3.6,14.4,1.3,23.1
		C165.8,31.6,166.4,33.3,172.1,31.9z"/>
	<path class="st0" d="M423.5,140.9c-2.7-24.3-3.8-27.6-6.1-41.1s-4.6-27.1-6.8-35.5c-2.2-8.4-13.8-8.4-17.8-8.4
		c-3.9,0-13.1,0.9-18.9,0.7s-17.8-0.7-28.6-1.6c-10.8-0.9-19.1-1-19.1-1c8.4,30.3,12.9,72,14.1,95.5c2.3,62.6-4.1,95.1-4.1,95.1
		c5.1-0.1,22.5,0.1,29.7,0.3c7.2,0.2,7.2,0.2,19-0.3s21.3-3.8,26.5-7.9c12.8-10.4,13.1-25.7,13.6-38.3
		C425.6,185.7,426.2,165.2,423.5,140.9z"/>
	<path class="st0" d="M329.1,136.8c-2.3-35.3-11.2-80-15.5-87.5c-10.8-20.3-39.3-27.7-39.3-27.7c-0.3,5.7-3.2,11.2-3.2,11.2
		c11,10,14.8,20,16.3,26.8s7.8,28.2,11.8,77.2s-2,99.5-3,106.3s3.8,6,3.8,6s12.3,0.2,19.5,0c7.2-0.2,6.8-8.2,6.8-8.2
		C331.4,198.1,331.4,172.1,329.1,136.8z"/>
	<path class="st0" d="M275.8,56.5c-30,3.5-63,3.2-63,3.2s-33,0.3-63-3.2c0,0-12.2,46.4-13.7,93c-1.5,46.5,0.7,64.4,3.7,95.5h73h73
		c3-31.1,5.2-48.9,3.7-95.5C287.9,102.9,275.8,56.5,275.8,56.5z"/>
</g>
</svg>
