<?xml version="1.0" encoding="UTF-8"?>
<svg width="211px" height="303px" viewBox="0 0 211 303" version="1.1" xmlns="http://www.w3.org/2000/svg" xmlns:xlink="http://www.w3.org/1999/xlink">
    <!-- Generator: sketchtool 48.2 (47327) - http://www.bohemiancoding.com/sketch -->
    <title>7E952F96-F0AF-4F84-ADCB-4CCCF3E8F226</title>
    <desc>Created with sketchtool.</desc>
    <defs></defs>
    <g id="Homepage-Copy-2" stroke="none" stroke-width="1" fill="none" fill-rule="evenodd" transform="translate(-204.000000, -249.000000)">
        <g id="heart-bg" transform="translate(204.000000, 249.000000)">
            <path d="M92.6371499,82.6177135 C97.0380392,95.6377875 98.533322,109.328649 101.241499,122.283181 C115.072865,93.1269871 148.437577,66.60863 182.191484,64.1083486 C190.725438,62.7384533 196.348122,69.2149105 203.551858,71.9668383 C209.00786,77.7207222 211.01128,85.0378889 210.999952,92.2118355 C207.612101,109.17491 197.49224,121.444899 189.154097,134.826665 C158.154488,181.399868 114.995998,220.268321 99.8109473,276.444547 C101.103946,285.300721 119.692221,290.443695 108.719532,297.72445 C104.216691,299.378358 101.30623,290.13379 97.573687,295.733125 L99.397479,300.957824 C93.4883607,307.059643 91.9493845,297.802129 87.8114644,295.100368 C83.1605522,288.856947 83.5594561,280.067123 82.3562713,272.257182 C23.135627,199.94079 -2.03415821,113.916544 0.127852471,27.9521754 C3.18153073,18.0894148 2.97439198,4.70764963 14.6979596,0 C56.8943881,3.62904926 85.0951957,44.2347525 92.6371499,82.6177135" id="Fill-1" fill="#F7F7F7"></path>
            <path d="M87.2950407,143.239562 C89.2368123,152.253478 87.1572114,162.356091 94.0105704,169.468634 C102.465992,167.047601 109.582038,184.482114 112.426997,169.775411 C103.464849,144.377634 122.371786,119.840291 139.032104,104.681111 C156.205635,93.0640382 173.212148,80.7249453 193.552509,78.7571983 C195.792641,85.1056309 188.96928,89.2855755 187.493695,95.4284104 C153.754705,148.898352 106.0982,191.853678 84.3154956,254 C34.9904446,189.868933 16.9348069,118.181749 16,45.123376 C16.6340148,35.3591096 18.2109441,23.0855813 26.4758372,17.1993386 C36.8016837,15.5691279 46.0094914,24.2714099 53.2625554,31.1378836 C68.433507,46.3974335 72.7645899,68.2935763 78.3637024,87.757354 L87.2950407,143.239562 Z" id="Fill-3" fill="#FFFFFF"></path>
        </g>
    </g>
</svg>