<?xml version="1.0" encoding="UTF-8"?>
<svg width="65px" height="57px" viewBox="0 0 65 57" version="1.1" xmlns="http://www.w3.org/2000/svg" xmlns:xlink="http://www.w3.org/1999/xlink">
    <!-- Generator: sketchtool 48.2 (47327) - http://www.bohemiancoding.com/sketch -->
    <title>63C4E75C-F1B4-421A-B9CA-4061B76A3DF4</title>
    <desc>Created with sketchtool.</desc>
    <defs></defs>
    <g id="FOOTER" stroke="none" stroke-width="1" fill="none" fill-rule="evenodd" transform="translate(-966.000000, -44.000000)">
        <path d="M1029.22761,62.2623014 L1029.21283,62.8706116 C1029.20674,63.2856474 1029.17675,63.6783317 1029.15501,64.0793431 C1029.08545,64.8726006 1029.00328,65.665858 1028.83285,66.4420232 C1028.51983,67.9996128 1027.99507,69.5129376 1027.31467,70.960523 C1025.95475,73.8692798 1023.84877,76.403321 1021.49716,78.6502995 C1020.92589,79.2336286 1020.28027,79.7371937 1019.66204,80.2723138 C1019.05251,80.8201436 1018.37385,81.2820736 1017.72389,81.7821326 L1015.7253,83.2717912 C1015.04795,83.7622084 1014.41624,84.3091616 1013.76063,84.8241216 C1013.12327,85.3609947 1012.49374,85.9075097 1011.86682,86.4553394 C1011.25554,87.0202615 1010.63123,87.5711591 1010.03126,88.1474759 C1008.81655,89.2843322 1007.66791,90.4873663 1006.46059,91.6290435 C1004.07332,93.9408851 1001.77606,96.3469533 999.557482,98.8279646 L998.730571,99.7636578 L998.500148,100.028807 L998.269726,99.7636578 L997.442814,98.8279646 C995.223804,96.3469533 992.926972,93.9408851 990.539276,91.6290435 C989.332384,90.4873663 988.183316,89.2843322 986.969034,88.1474759 C986.368632,87.5711591 985.744753,87.0202615 985.133482,86.4553394 C984.506124,85.9075097 983.877028,85.3609947 983.239236,84.8241216 C982.58362,84.3091616 981.95235,83.7622084 981.274995,83.2717912 L979.275973,81.7821326 C978.626008,81.2820736 977.947784,80.8201436 977.338252,80.2723138 C976.71959,79.7371937 976.073973,79.2336286 975.503134,78.6502995 C973.151088,76.403321 971.045115,73.8692798 969.685189,70.960523 C969.005225,69.5129376 968.480471,67.9996128 968.16701,66.4420232 C967.997019,65.665858 967.91485,64.8726006 967.844853,64.0793431 C967.823116,63.6783317 967.793117,63.2856474 967.787465,62.8706116 L967.772683,62.2623014 C967.769205,62.107156 967.764858,61.9787447 967.763988,61.8170254 L967.768336,61.6636331 C967.817898,59.9022509 968.122664,58.157961 968.671765,56.4903672 C969.211301,54.8166378 970.076037,53.2599248 971.118154,51.8504684 L971.507698,51.3179779 L971.94637,50.8262459 C972.24418,50.5041221 972.5146,50.1530728 972.851104,49.8690778 C973.174999,49.5728115 973.479765,49.2515641 973.819747,48.9732666 L974.86143,48.1602873 C976.30483,47.1487744 977.906482,46.3647205 979.59639,45.8431866 C982.971425,44.7887239 986.732525,44.840439 990.097126,46.1227989 C991.787469,46.7429422 993.358688,47.6838945 994.772524,48.8225039 C996.183317,49.9641811 997.427163,51.3442737 998.359721,52.918079 L998.500148,53.1547415 L998.640576,52.918079 C999.573134,51.3442737 1000.81698,49.9641811 1002.22777,48.8225039 C1003.64161,47.6838945 1005.21283,46.7429422 1006.90274,46.1227989 C1010.26734,44.840439 1014.02887,44.7887239 1017.40391,45.8431866 C1019.09381,46.3647205 1020.69547,47.1487744 1022.13843,48.1602873 L1023.18012,48.9732666 C1023.52053,49.2515641 1023.82486,49.5728115 1024.14919,49.8690778 C1024.4857,50.1530728 1024.75612,50.5041221 1025.05393,50.8262459 L1025.4926,51.3179779 L1025.88214,51.8504684 C1026.92426,53.2599248 1027.789,54.8166378 1028.32853,56.4903672 C1028.8772,58.157961 1029.1824,59.9022509 1029.23196,61.6636331 L1029.23631,61.8170254 C1029.235,61.9787447 1029.23066,62.107156 1029.22761,62.2623014 Z M998.742309,100.423683 L998.716658,100.39169 L998.611881,100.263279 C998.668835,100.296148 998.71318,100.34129 998.730136,100.380733 C998.740135,100.398702 998.747092,100.415794 998.751874,100.43201 C998.754482,100.442528 998.745352,100.425436 998.742309,100.423683 Z M998.283638,100.39169 L998.257553,100.423683 C998.254944,100.425436 998.245814,100.442528 998.247988,100.43201 C998.253205,100.415794 998.260161,100.398702 998.269726,100.380733 C998.286682,100.34129 998.331462,100.296148 998.387981,100.263279 L998.283638,100.39169 Z M1030.99926,61.6833549 L1030.981,60.764754 L1030.95926,60.764754 C1030.73318,57.1709909 1029.47847,53.615795 1027.23294,50.8043328 C1026.04344,49.2743538 1024.61656,47.9319518 1023.00143,46.8774891 C1021.38152,45.8317917 1019.6064,45.0494909 1017.75954,44.5590737 C1014.05974,43.5883194 1010.07561,43.8920362 1006.61232,45.3900218 C1004.87154,46.1166632 1003.28206,47.1671815 1001.87605,48.4035237 C1001.52303,48.7111849 1001.19392,49.0464567 1000.86219,49.376031 C1000.55004,49.7253273 1000.21875,50.0557782 999.933549,50.4278642 C999.425316,51.0405569 998.951863,51.6799838 998.500148,52.3369412 C998.048434,51.6799838 997.574981,51.0405569 997.066313,50.4278642 C996.781111,50.0557782 996.449825,49.7253273 996.137668,49.376031 C995.805947,49.0464567 995.476834,48.7111849 995.12381,48.4035237 C993.717799,47.1671815 992.12832,46.1166632 990.387545,45.3900218 C986.924689,43.8920362 982.940557,43.5883194 979.240323,44.5590737 C977.393466,45.0494909 975.618345,45.8317917 973.998868,46.8774891 C972.383303,47.9319518 970.956859,49.2743538 969.767358,50.8043328 C967.521828,53.615795 966.266678,57.1709909 966.041038,60.764754 L966.0193,60.764754 L966.000606,61.6833549 C965.997562,61.8349942 966.006692,62.0900637 966.012344,62.2947329 L966.031908,62.9350363 C966.040603,63.35314 966.074515,63.7905273 966.101904,64.2209023 C966.193204,65.0838437 966.301894,65.949853 966.503187,66.7974552 C966.874906,68.498357 967.484003,70.1414079 968.283091,71.6696338 C969.873439,74.7427395 972.164185,77.3442734 974.713612,79.5386602 C975.333143,80.1127858 976.019628,80.6005734 976.680027,81.1186012 C977.332165,81.6502152 978.046474,82.0906703 978.732959,82.5688161 L980.787195,83.955921 C981.471071,84.4099623 982.115819,84.9249223 982.782739,85.4070124 C983.433574,85.9114541 984.077887,86.4272905 984.720895,86.9440036 C985.349557,87.4795619 985.990392,88.0010958 986.609489,88.5489256 C987.225542,89.1002614 987.855073,89.6375728 988.457214,90.2055627 C988.759372,90.4878046 989.06892,90.7630343 989.365426,91.0518501 L990.234944,91.938896 C992.547862,94.3099032 994.768177,96.7725074 996.904148,99.3026043 L997.699322,100.254952 L998.092344,100.734412 L998.141472,100.794454 C998.185383,100.846608 998.272769,100.946094 998.427978,100.989043 C998.45276,100.996494 998.476237,100.99737 998.500148,101 C998.52406,100.99737 998.547537,100.996494 998.571884,100.989043 C998.727527,100.946094 998.814914,100.846608 998.858825,100.794454 L998.907518,100.734412 L999.30054,100.254952 L1000.09571,99.3026043 C1002.23212,96.7725074 1004.45243,94.3099032 1006.76535,91.938896 L1007.63487,91.0518501 C1007.93138,90.7630343 1008.24092,90.4878046 1008.54265,90.2055627 C1009.14522,89.6375728 1009.77475,89.1002614 1010.39037,88.5489256 C1011.00991,88.0010958 1011.65074,87.4795619 1012.2794,86.9440036 C1012.92241,86.4272905 1013.56629,85.9114541 1014.21712,85.4070124 C1014.88448,84.9249223 1015.52923,84.4099623 1016.21267,83.955921 L1018.2669,82.5688161 C1018.95382,82.0906703 1019.66813,81.6502152 1020.32027,81.1186012 C1020.98067,80.6005734 1021.66715,80.1127858 1022.28669,79.5386602 C1024.83611,77.3442734 1027.12686,74.7427395 1028.71677,71.6696338 C1029.51629,70.1414079 1030.12539,68.498357 1030.49667,66.7974552 C1030.6984,65.949853 1030.80666,65.0838437 1030.89839,64.2209023 C1030.92535,63.7905273 1030.95969,63.35314 1030.96795,62.9350363 L1030.98795,62.2947329 C1030.99317,62.0900637 1031.00273,61.8349942 1030.99926,61.6833549 Z" id="heart-hover" fill="#F0C6B9"></path>
    </g>
</svg>