<?xml version="1.0" encoding="UTF-8"?>
<svg width="13px" height="16px" viewBox="0 0 13 16" version="1.1" xmlns="http://www.w3.org/2000/svg" xmlns:xlink="http://www.w3.org/1999/xlink">
    <!-- Generator: sketchtool 48.2 (47327) - http://www.bohemiancoding.com/sketch -->
    <title>B410B958-3234-4032-85AF-ED7890F34726</title>
    <desc>Created with sketchtool.</desc>
    <defs></defs>
    <g id="ShoppingBag-Copy" stroke="none" stroke-width="1" fill="none" fill-rule="evenodd" transform="translate(-1050.000000, -569.000000)">
        <path d="M1062.48116,576.540315 L1061.18096,576.540315 L1061.18096,573.722137 L1061.17871,573.722137 C1061.16098,571.110773 1059.07408,569 1056.50098,569 C1053.92788,569 1051.84098,571.111918 1051.82213,573.722137 L1051.81988,573.722137 L1051.81988,576.540315 L1050.51968,576.540315 C1050.2341,576.540315 1050,576.779168 1050,577.068652 L1050,584.470233 C1050,584.762005 1050.2341,585 1050.51968,585 L1062.48003,585 C1062.7659,585 1063,584.762005 1063,584.470233 L1063,577.068652 C1063.00112,576.779168 1062.76702,576.540315 1062.48116,576.540315 Z M1054,574.027606 C1054,574.033338 1054.00118,574.038166 1054.00118,574.042993 C1054.01505,572.36461 1055.35832,571 1057,571 C1058.64168,571 1059.98613,572.36461 1059.99882,574.042993 C1059.99882,574.038166 1060,574.033338 1060,574.027606 L1060,577 L1054,577 L1054,574.027606 Z M1058,580.500128 C1058,581.328687 1057.32792,582 1056.5,582 C1055.67208,582 1055,581.328687 1055,580.500128 C1055,579.671313 1055.67208,579 1056.5,579 C1057.32792,579 1058,579.671313 1058,580.500128 Z" id="lock" fill="#FFFFFF"></path>
    </g>
</svg>