<?xml version="1.0" encoding="utf-8"?>
<!-- Generator: Adobe Illustrator 22.1.0, SVG Export Plug-In . SVG Version: 6.00 Build 0)  -->
<svg version="1.1" id="Layer_1" xmlns="http://www.w3.org/2000/svg" xmlns:xlink="http://www.w3.org/1999/xlink" x="0px" y="0px"
	 viewBox="0 0 15 17" style="enable-background:new 0 0 15 17;" xml:space="preserve">
<title>shopping-cart</title>
<desc>Created with Sketch.</desc>
<g id="NAV" transform="translate(-1272.000000, -10.000000)">
	<path id="shopping-cart" d="M1287,25l-1.1-9.9c0-0.2-0.2-0.3-0.3-0.3l-2,0v-0.9c0-2.2-1.8-3.9-4-3.9s-4,1.8-4,3.9v0.9h-2
		c-0.2,0-0.3,0.1-0.3,0.3L1272,25c0,0,0,0,0,0.1c0,1.1,0.9,1.9,2,1.9h11.1C1286.1,27,1287,26.1,1287,25C1287,25.1,1287,25.1,1287,25
		z M1276.6,13.9c0-1.5,1.3-2.8,2.9-2.8c1.6,0,2.9,1.3,2.9,2.8v0.9h-5.8V13.9z M1276.2,18.9c-0.6,0-1-0.4-1-1c0-0.6,0.4-1,1-1
		s1,0.4,1,1C1277.2,18.5,1276.8,18.9,1276.2,18.9z M1282.8,18.9c-0.6,0-1-0.4-1-1c0-0.6,0.4-1,1-1s1,0.4,1,1
		C1283.8,18.5,1283.3,18.9,1282.8,18.9z"/>
</g>
</svg>
